<mxfile host="app.diagrams.net" agent="Mozilla/5.0 (Windows NT 10.0; Win64; x64) AppleWebKit/537.36 (KHTML, like Gecko) Chrome/131.0.0.0 Safari/537.36" version="26.0.7">
  <diagram name="Page-1" id="QYykY3pMjm5H_T9S81lt">
    <mxGraphModel dx="225" dy="367" grid="1" gridSize="10" guides="1" tooltips="1" connect="1" arrows="1" fold="1" page="1" pageScale="1" pageWidth="850" pageHeight="1100" math="0" shadow="0">
      <root>
        <mxCell id="0" />
        <mxCell id="1" parent="0" />
        <mxCell id="L31MhltJ1lk3ZA7Ocww6-1" value="ESP32 DATA" style="rounded=0;whiteSpace=wrap;html=1;" vertex="1" parent="1">
          <mxGeometry x="60" y="320" width="120" height="60" as="geometry" />
        </mxCell>
        <mxCell id="L31MhltJ1lk3ZA7Ocww6-3" value="Database" style="shape=datastore;whiteSpace=wrap;html=1;" vertex="1" parent="1">
          <mxGeometry x="420" y="320" width="60" height="60" as="geometry" />
        </mxCell>
        <mxCell id="L31MhltJ1lk3ZA7Ocww6-6" value="" style="endArrow=classic;html=1;rounded=0;exitX=1;exitY=0.75;exitDx=0;exitDy=0;" edge="1" parent="1" source="L31MhltJ1lk3ZA7Ocww6-1">
          <mxGeometry width="50" height="50" relative="1" as="geometry">
            <mxPoint x="400" y="320" as="sourcePoint" />
            <mxPoint x="420" y="365" as="targetPoint" />
          </mxGeometry>
        </mxCell>
        <mxCell id="L31MhltJ1lk3ZA7Ocww6-7" value="" style="endArrow=classic;html=1;rounded=0;exitX=0;exitY=0.3;exitDx=0;exitDy=0;" edge="1" parent="1" source="L31MhltJ1lk3ZA7Ocww6-3">
          <mxGeometry width="50" height="50" relative="1" as="geometry">
            <mxPoint x="400" y="320" as="sourcePoint" />
            <mxPoint x="180" y="340" as="targetPoint" />
          </mxGeometry>
        </mxCell>
        <mxCell id="L31MhltJ1lk3ZA7Ocww6-9" value="DATA RECEIVE" style="text;html=1;align=center;verticalAlign=middle;whiteSpace=wrap;rounded=0;" vertex="1" parent="1">
          <mxGeometry x="240" y="310" width="110" height="30" as="geometry" />
        </mxCell>
        <mxCell id="L31MhltJ1lk3ZA7Ocww6-10" value="DATA SEND" style="text;html=1;align=center;verticalAlign=middle;whiteSpace=wrap;rounded=0;" vertex="1" parent="1">
          <mxGeometry x="240" y="370" width="110" height="30" as="geometry" />
        </mxCell>
        <mxCell id="L31MhltJ1lk3ZA7Ocww6-11" value="Format : Json&lt;div&gt;&lt;br&gt;&lt;/div&gt;" style="text;html=1;whiteSpace=wrap;overflow=hidden;rounded=0;" vertex="1" parent="1">
          <mxGeometry x="200" y="410" width="180" height="120" as="geometry" />
        </mxCell>
      </root>
    </mxGraphModel>
  </diagram>
</mxfile>
